<mxfile host="app.diagrams.net" modified="2022-08-08T03:53:07.817Z" agent="5.0 (Macintosh; Intel Mac OS X 10_15_7) AppleWebKit/537.36 (KHTML, like Gecko) Chrome/103.0.0.0 Safari/537.36" etag="MDu_sK-rxPKj-yPeUMmm" version="18.0.1" type="github">
  <diagram name="Page-1" id="55a83fd1-7818-8e21-69c5-c3457e3827bb">
    <mxGraphModel dx="1186" dy="771" grid="0" gridSize="10" guides="1" tooltips="1" connect="1" arrows="1" fold="1" page="1" pageScale="1" pageWidth="1100" pageHeight="850" background="none" math="0" shadow="0">
      <root>
        <mxCell id="0" />
        <mxCell id="1" parent="0" />
        <mxCell id="Ewcw23m3mw5RzRn3EUhp-22" value="" style="rounded=0;whiteSpace=wrap;html=1;" vertex="1" parent="1">
          <mxGeometry x="191" y="83" width="852" height="529" as="geometry" />
        </mxCell>
        <mxCell id="Ewcw23m3mw5RzRn3EUhp-1" value="综合平台接口" style="ellipse;shape=cloud;whiteSpace=wrap;html=1;" vertex="1" parent="1">
          <mxGeometry x="211" y="285" width="200" height="100" as="geometry" />
        </mxCell>
        <mxCell id="Ewcw23m3mw5RzRn3EUhp-3" value="数据库服务器" style="aspect=fixed;html=1;points=[];align=center;image;fontSize=12;image=img/lib/azure2/databases/SQL_Server.svg;" vertex="1" parent="1">
          <mxGeometry x="560" y="465" width="68" height="68" as="geometry" />
        </mxCell>
        <mxCell id="Ewcw23m3mw5RzRn3EUhp-5" style="edgeStyle=orthogonalEdgeStyle;rounded=0;orthogonalLoop=1;jettySize=auto;html=1;" edge="1" parent="1" source="Ewcw23m3mw5RzRn3EUhp-4" target="Ewcw23m3mw5RzRn3EUhp-3">
          <mxGeometry relative="1" as="geometry" />
        </mxCell>
        <mxCell id="Ewcw23m3mw5RzRn3EUhp-17" style="edgeStyle=none;rounded=0;orthogonalLoop=1;jettySize=auto;html=1;" edge="1" parent="1" source="Ewcw23m3mw5RzRn3EUhp-4" target="Ewcw23m3mw5RzRn3EUhp-15">
          <mxGeometry relative="1" as="geometry" />
        </mxCell>
        <mxCell id="Ewcw23m3mw5RzRn3EUhp-4" value="应用服务器" style="aspect=fixed;perimeter=ellipsePerimeter;html=1;align=center;shadow=0;dashed=0;spacingTop=3;image;image=img/lib/active_directory/generic_server.svg;" vertex="1" parent="1">
          <mxGeometry x="568.8" y="290" width="50.4" height="90" as="geometry" />
        </mxCell>
        <mxCell id="Ewcw23m3mw5RzRn3EUhp-12" style="edgeStyle=orthogonalEdgeStyle;rounded=0;orthogonalLoop=1;jettySize=auto;html=1;" edge="1" parent="1" source="Ewcw23m3mw5RzRn3EUhp-7" target="Ewcw23m3mw5RzRn3EUhp-4">
          <mxGeometry relative="1" as="geometry" />
        </mxCell>
        <mxCell id="Ewcw23m3mw5RzRn3EUhp-13" style="orthogonalLoop=1;jettySize=auto;html=1;rounded=0;" edge="1" parent="1" source="Ewcw23m3mw5RzRn3EUhp-7" target="Ewcw23m3mw5RzRn3EUhp-8">
          <mxGeometry relative="1" as="geometry" />
        </mxCell>
        <mxCell id="Ewcw23m3mw5RzRn3EUhp-7" value="负载均衡" style="outlineConnect=0;dashed=0;verticalLabelPosition=bottom;verticalAlign=top;align=center;html=1;shape=mxgraph.aws3.classic_load_balancer;fillColor=#F58534;gradientColor=none;" vertex="1" parent="1">
          <mxGeometry x="684" y="299" width="69" height="72" as="geometry" />
        </mxCell>
        <mxCell id="Ewcw23m3mw5RzRn3EUhp-16" style="edgeStyle=none;rounded=0;orthogonalLoop=1;jettySize=auto;html=1;entryX=0.75;entryY=0;entryDx=0;entryDy=0;" edge="1" parent="1" source="Ewcw23m3mw5RzRn3EUhp-8" target="Ewcw23m3mw5RzRn3EUhp-15">
          <mxGeometry relative="1" as="geometry" />
        </mxCell>
        <mxCell id="Ewcw23m3mw5RzRn3EUhp-8" value="应用服务器" style="aspect=fixed;perimeter=ellipsePerimeter;html=1;align=center;shadow=0;dashed=0;spacingTop=3;image;image=img/lib/active_directory/generic_server.svg;" vertex="1" parent="1">
          <mxGeometry x="568.8" y="140" width="50.4" height="90" as="geometry" />
        </mxCell>
        <mxCell id="Ewcw23m3mw5RzRn3EUhp-20" style="edgeStyle=none;rounded=0;orthogonalLoop=1;jettySize=auto;html=1;" edge="1" parent="1" source="Ewcw23m3mw5RzRn3EUhp-10" target="Ewcw23m3mw5RzRn3EUhp-19">
          <mxGeometry relative="1" as="geometry" />
        </mxCell>
        <mxCell id="Ewcw23m3mw5RzRn3EUhp-10" value="PC" style="image;html=1;image=img/lib/clip_art/computers/Monitor_128x128.png" vertex="1" parent="1">
          <mxGeometry x="939" y="295" width="80" height="80" as="geometry" />
        </mxCell>
        <mxCell id="Ewcw23m3mw5RzRn3EUhp-18" style="edgeStyle=none;rounded=0;orthogonalLoop=1;jettySize=auto;html=1;entryX=0.875;entryY=0.5;entryDx=0;entryDy=0;entryPerimeter=0;" edge="1" parent="1" source="Ewcw23m3mw5RzRn3EUhp-15" target="Ewcw23m3mw5RzRn3EUhp-1">
          <mxGeometry relative="1" as="geometry" />
        </mxCell>
        <mxCell id="Ewcw23m3mw5RzRn3EUhp-15" value="应用服务器" style="aspect=fixed;perimeter=ellipsePerimeter;html=1;align=center;shadow=0;dashed=0;spacingTop=3;image;image=img/lib/active_directory/generic_server.svg;" vertex="1" parent="1">
          <mxGeometry x="452.99999999999994" y="290" width="50.4" height="90" as="geometry" />
        </mxCell>
        <mxCell id="Ewcw23m3mw5RzRn3EUhp-21" style="edgeStyle=none;rounded=0;orthogonalLoop=1;jettySize=auto;html=1;" edge="1" parent="1" source="Ewcw23m3mw5RzRn3EUhp-19" target="Ewcw23m3mw5RzRn3EUhp-7">
          <mxGeometry relative="1" as="geometry" />
        </mxCell>
        <mxCell id="Ewcw23m3mw5RzRn3EUhp-19" value="防火墙" style="image;html=1;image=img/lib/clip_art/networking/Firewall_02_128x128.png" vertex="1" parent="1">
          <mxGeometry x="809" y="295" width="80" height="80" as="geometry" />
        </mxCell>
        <mxCell id="Ewcw23m3mw5RzRn3EUhp-23" value="公安网" style="text;html=1;strokeColor=none;fillColor=none;align=center;verticalAlign=middle;whiteSpace=wrap;rounded=0;" vertex="1" parent="1">
          <mxGeometry x="587" y="92" width="60" height="30" as="geometry" />
        </mxCell>
        <mxCell id="Ewcw23m3mw5RzRn3EUhp-24" style="edgeStyle=none;rounded=0;orthogonalLoop=1;jettySize=auto;html=1;exitX=1;exitY=1;exitDx=0;exitDy=0;" edge="1" parent="1" source="Ewcw23m3mw5RzRn3EUhp-22" target="Ewcw23m3mw5RzRn3EUhp-22">
          <mxGeometry relative="1" as="geometry" />
        </mxCell>
      </root>
    </mxGraphModel>
  </diagram>
</mxfile>
